<svg width="187" height="62" viewBox="0 0 187 62" fill="none" xmlns="http://www.w3.org/2000/svg">
<path d="M59.784 46.728C60.3387 46.728 60.7653 46.984 61.064 47.496C61.4053 48.008 61.576 48.712 61.576 49.608C61.576 51.272 61.1707 52.5947 60.36 53.576C58.312 56.0507 56.2427 57.9707 54.152 59.336C52.0613 60.6587 49.5867 61.32 46.728 61.32C43.9547 61.32 41.5867 60.5733 39.624 59.08C37.704 57.5867 35.8693 55.0267 34.12 51.4C32.712 48.4987 31.6027 46.3653 30.792 45C29.9813 43.592 29.1707 42.5893 28.36 41.992C27.592 41.3947 26.632 41.032 25.48 40.904C25.3093 41.8 24.8187 44.616 24.008 49.352C23.6667 51.4853 23.4533 52.7867 23.368 53.256C22.9413 55.8587 22.088 57.864 20.808 59.272C19.528 60.6373 17.5867 61.32 14.984 61.32C12.1253 61.32 9.58667 60.488 7.368 58.824C5.192 57.1173 3.50667 54.7707 2.312 51.784C1.11733 48.7547 0.52 45.32 0.52 41.48C0.52 34.312 1.75733 28.1253 4.232 22.92C6.74933 17.7147 10.248 13.7467 14.728 11.016C19.2507 8.24267 24.456 6.856 30.344 6.856C34.44 6.856 37.8747 7.47467 40.648 8.712C43.4213 9.94933 45.4693 11.656 46.792 13.832C48.1573 16.008 48.84 18.4613 48.84 21.192C48.84 23.5813 48.264 25.928 47.112 28.232C46.0027 30.4933 44.3173 32.4987 42.056 34.248C39.7947 35.9973 37.0427 37.2987 33.8 38.152C35.848 38.7067 37.4267 39.6027 38.536 40.84C39.6453 42.0773 40.7547 43.8907 41.864 46.28C43.0587 48.84 44.232 50.7173 45.384 51.912C46.5787 53.1067 47.944 53.704 49.48 53.704C50.8453 53.704 52.1467 53.256 53.384 52.36C54.6213 51.4213 56.1787 49.8427 58.056 47.624C58.568 47.0267 59.144 46.728 59.784 46.728ZM16.648 40.84C15.1973 40.84 14.1947 40.4987 13.64 39.816C13.128 39.1333 12.872 38.3653 12.872 37.512C12.872 36.488 13.192 35.6773 13.832 35.08C14.5147 34.4827 15.2827 34.184 16.136 34.184H17.736C18.4187 30.0027 19.0587 26.3973 19.656 23.368C20.2107 20.5947 22.0027 19.208 25.032 19.208C27.464 19.208 28.68 20.296 28.68 22.472C28.68 22.9413 28.6587 23.304 28.616 23.56L26.696 34.184C29 34.056 31.0907 33.5013 32.968 32.52C34.888 31.5387 36.4027 30.1733 37.512 28.424C38.664 26.6747 39.24 24.6907 39.24 22.472C39.24 19.784 38.3227 17.672 36.488 16.136C34.6533 14.6 31.9653 13.832 28.424 13.832C24.2427 13.832 20.5733 14.8773 17.416 16.968C14.3013 19.016 11.8693 22.088 10.12 26.184C8.37067 30.2373 7.496 35.1867 7.496 41.032C7.496 43.7627 7.77333 46.1093 8.328 48.072C8.88267 50.0347 9.56533 51.5067 10.376 52.488C11.1867 53.4693 11.9547 53.96 12.68 53.96C13.2347 53.96 13.6827 53.6827 14.024 53.128C14.408 52.5733 14.7067 51.6773 14.92 50.44L16.648 40.84ZM83.6785 46.728C84.2332 46.728 84.6598 46.984 84.9585 47.496C85.2998 48.008 85.4705 48.712 85.4705 49.608C85.4705 51.3147 85.0652 52.6373 84.2545 53.576C82.6758 55.496 80.4358 57.2667 77.5345 58.888C74.6758 60.5093 71.6038 61.32 68.3185 61.32C63.8385 61.32 60.3612 60.104 57.8865 57.672C55.4118 55.24 54.1745 51.912 54.1745 47.688C54.1745 44.744 54.7932 42.0133 56.0305 39.496C57.2678 36.936 58.9745 34.9093 61.1505 33.416C63.3692 31.9227 65.8652 31.176 68.6385 31.176C71.1132 31.176 73.0972 31.9227 74.5905 33.416C76.0838 34.8667 76.8305 36.8507 76.8305 39.368C76.8305 42.312 75.7638 44.8507 73.6305 46.984C71.5398 49.0747 67.9772 50.7387 62.9425 51.976C64.0092 53.9387 66.0358 54.92 69.0225 54.92C70.9425 54.92 73.1185 54.2587 75.5505 52.936C78.0252 51.5707 80.1585 49.8 81.9505 47.624C82.4625 47.0267 83.0385 46.728 83.6785 46.728ZM67.5505 37.448C65.9718 37.448 64.6278 38.3653 63.5185 40.2C62.4518 42.0347 61.9185 44.2533 61.9185 46.856V46.984C64.4358 46.3867 66.4198 45.4907 67.8705 44.296C69.3212 43.1013 70.0465 41.7147 70.0465 40.136C70.0465 39.3253 69.8118 38.6853 69.3425 38.216C68.9158 37.704 68.3185 37.448 67.5505 37.448ZM104.516 46.728C105.07 46.728 105.497 46.984 105.796 47.496C106.137 48.008 106.308 48.712 106.308 49.608C106.308 51.3147 105.902 52.6373 105.092 53.576C103.257 55.8373 101.252 57.6933 99.0755 59.144C96.9422 60.5947 94.5102 61.32 91.7795 61.32C88.0248 61.32 85.2302 59.6133 83.3955 56.2C81.6035 52.7867 80.7075 48.3707 80.7075 42.952C80.7075 37.7467 81.3688 31.816 82.6915 25.16C84.0568 18.504 86.0408 12.7867 88.6435 8.008C91.2888 3.22933 94.4248 0.839996 98.0515 0.839996C100.1 0.839996 101.7 1.8 102.852 3.72C104.046 5.59733 104.644 8.30667 104.644 11.848C104.644 16.9253 103.236 22.8133 100.42 29.512C97.6035 36.2107 93.7848 42.8453 88.9635 49.416C89.2622 51.1653 89.7528 52.424 90.4355 53.192C91.1182 53.9173 92.0142 54.28 93.1235 54.28C94.8728 54.28 96.4088 53.7893 97.7315 52.808C99.0542 51.784 100.74 50.056 102.788 47.624C103.3 47.0267 103.876 46.728 104.516 46.728ZM96.6435 7.176C95.6622 7.176 94.5528 8.94667 93.3155 12.488C92.0782 16.0293 90.9902 20.424 90.0515 25.672C89.1128 30.92 88.6008 35.9547 88.5155 40.776C91.5448 35.784 93.9555 30.792 95.7475 25.8C97.5395 20.7653 98.4355 16.1787 98.4355 12.04C98.4355 8.79733 97.8382 7.176 96.6435 7.176ZM109.519 26.952C107.727 26.952 106.383 26.5467 105.487 25.736C104.591 24.8827 104.143 23.7093 104.143 22.216C104.143 20.7227 104.719 19.4853 105.871 18.504C107.065 17.48 108.537 16.968 110.287 16.968C111.865 16.968 113.145 17.352 114.127 18.12C115.108 18.888 115.599 19.976 115.599 21.384C115.599 23.0907 115.044 24.456 113.935 25.48C112.825 26.4613 111.353 26.952 109.519 26.952ZM109.007 61.32C106.233 61.32 104.207 60.3387 102.927 58.376C101.689 56.4133 101.071 53.8107 101.071 50.568C101.071 48.648 101.305 46.1947 101.775 43.208C102.287 40.1787 102.927 37.3627 103.695 34.76C104.079 33.3947 104.591 32.456 105.231 31.944C105.871 31.432 106.895 31.176 108.303 31.176C110.479 31.176 111.567 31.9013 111.567 33.352C111.567 34.4187 111.161 36.8933 110.351 40.776C109.327 45.4693 108.815 48.648 108.815 50.312C108.815 51.592 108.985 52.5733 109.327 53.256C109.668 53.9387 110.244 54.28 111.055 54.28C111.823 54.28 112.783 53.7467 113.935 52.68C115.087 51.6133 116.623 49.928 118.543 47.624C119.055 47.0267 119.631 46.728 120.271 46.728C120.825 46.728 121.252 46.984 121.551 47.496C121.892 48.008 122.063 48.712 122.063 49.608C122.063 51.3147 121.657 52.6373 120.847 53.576C116.623 58.7387 112.676 61.32 109.007 61.32ZM149.19 41.544C149.318 41.5013 149.531 41.48 149.83 41.48C150.47 41.48 150.96 41.6933 151.302 42.12C151.643 42.5467 151.814 43.1227 151.814 43.848C151.814 45.1707 151.558 46.216 151.046 46.984C150.534 47.7093 149.766 48.2427 148.742 48.584C146.779 49.224 144.688 49.544 142.47 49.544C140.592 49.544 138.822 49.288 137.158 48.776C135.92 50.7813 134.555 52.8507 133.062 54.984C131.355 57.416 129.883 59.08 128.646 59.976C127.408 60.872 126 61.32 124.422 61.32C122.672 61.32 121.286 60.6373 120.262 59.272C119.28 57.9067 118.662 55.752 118.406 52.808C117.894 46.8347 117.638 41.608 117.638 37.128V34.888C117.68 33.48 118.064 32.4987 118.79 31.944C119.515 31.3893 120.603 31.112 122.054 31.112C123.163 31.112 123.974 31.368 124.486 31.88C125.04 32.3493 125.318 33.16 125.318 34.312C125.318 39.2187 125.616 45.5973 126.214 53.448C128.774 49.6507 130.694 46.6213 131.974 44.36C131.334 43.1227 131.014 41.6507 131.014 39.944C131.014 38.4933 131.334 37.0853 131.974 35.72C132.614 34.3547 133.488 33.2453 134.598 32.392C135.707 31.5387 136.966 31.112 138.374 31.112C139.611 31.112 140.614 31.56 141.382 32.456C142.15 33.3093 142.534 34.568 142.534 36.232C142.534 38.152 142.022 40.3493 140.998 42.824C142.619 42.7387 144.774 42.4187 147.462 41.864L149.19 41.544ZM169.172 48.648C169.726 48.648 170.153 48.904 170.452 49.416C170.793 49.928 170.964 50.632 170.964 51.528C170.964 53.064 170.601 54.3867 169.876 55.496C168.681 57.3307 167.102 58.76 165.14 59.784C163.22 60.808 160.916 61.32 158.228 61.32C154.132 61.32 150.953 60.104 148.692 57.672C146.43 55.1973 145.299 51.8693 145.299 47.688C145.299 44.744 145.918 42.0133 147.156 39.496C148.393 36.936 150.1 34.9093 152.276 33.416C154.494 31.9227 156.99 31.176 159.764 31.176C162.238 31.176 164.222 31.9227 165.716 33.416C167.209 34.8667 167.956 36.8507 167.956 39.368C167.956 42.312 166.889 44.8507 164.756 46.984C162.665 49.0747 159.081 50.7387 154.004 51.976C155.028 53.9387 156.756 54.92 159.188 54.92C160.937 54.92 162.366 54.5147 163.476 53.704C164.628 52.8933 165.95 51.528 167.444 49.608C167.956 48.968 168.532 48.648 169.172 48.648ZM158.676 37.448C157.097 37.448 155.753 38.3653 154.644 40.2C153.577 42.0347 153.044 44.2533 153.044 46.856V46.984C155.561 46.3867 157.545 45.4907 158.996 44.296C160.446 43.1013 161.172 41.7147 161.172 40.136C161.172 39.3253 160.937 38.6853 160.468 38.216C160.041 37.704 159.444 37.448 158.676 37.448ZM179.863 61.32C177.986 61.32 176.556 60.808 175.575 59.784C174.636 58.76 174.167 57.416 174.167 55.752C174.167 53.832 174.7 52.296 175.767 51.144C176.876 49.992 178.412 49.416 180.375 49.416C182.252 49.416 183.66 49.8853 184.599 50.824C185.58 51.72 186.071 53.064 186.071 54.856C186.071 56.8187 185.516 58.3973 184.407 59.592C183.298 60.744 181.783 61.32 179.863 61.32Z" fill="black"/>
</svg>
